<svg width="2281" height="2388" viewBox="0 0 2281 2388" fill="none" xmlns="http://www.w3.org/2000/svg">
<rect x="0.90625" y="0.882324" width="2279.12" height="2386.55" rx="174.048" fill="black"/>
<path d="M940.82 779.204C979.609 779.204 1016.12 786.81 1050.34 802.021C1084.57 816.472 1114.61 836.626 1140.47 862.486C1166.33 887.584 1186.48 917.246 1200.93 951.471C1216.14 985.696 1223.75 1022.2 1223.75 1060.99C1223.75 1099.78 1216.14 1136.29 1200.93 1170.51C1186.48 1204.74 1166.33 1234.4 1140.47 1259.5C1114.61 1284.6 1084.57 1304.75 1050.34 1319.96C1016.12 1334.41 979.609 1341.64 940.82 1341.64H851.834L765.13 1181.92H940.82C957.552 1181.92 973.144 1178.88 987.595 1172.79C1002.81 1165.95 1015.74 1156.82 1026.38 1145.41C1037.03 1133.25 1045.4 1119.17 1051.48 1103.2C1058.33 1086.47 1061.75 1068.22 1061.75 1048.44C1061.75 1031.71 1058.33 1015.74 1051.48 1000.53C1045.4 984.556 1037.03 970.485 1026.38 958.316C1015.74 946.147 1002.81 936.26 987.595 928.654C973.144 921.049 957.552 917.246 940.82 917.246H738.89V1577.79H580.312V779.204H940.82Z" fill="white"/>
<path opacity="0.4" fill-rule="evenodd" clip-rule="evenodd" d="M1699.5 1150.22C1698.74 1138.91 1697.61 1127.6 1696.1 1116.29H1405.18L1313.78 1263.33H1528.69C1521.91 1290.48 1511.35 1315.37 1497.02 1337.99C1483.45 1359.86 1467.24 1379.09 1448.38 1395.68C1429.53 1412.27 1408.04 1425.09 1383.91 1434.14C1359.78 1443.19 1334.14 1447.71 1306.99 1447.71C1273.05 1447.71 1241.38 1440.92 1211.97 1427.35C1191.22 1417.24 1172.35 1404.88 1155.35 1390.26L1156.19 1560.55C1203.74 1579.59 1254 1589.1 1306.99 1589.1C1362.79 1589.1 1414.83 1578.55 1463.09 1557.43C1511.35 1536.32 1552.83 1507.66 1587.51 1471.47C1622.96 1434.51 1650.48 1391.53 1670.09 1342.51C1690.45 1292.74 1700.63 1239.96 1700.63 1184.15C1700.63 1172.84 1700.25 1161.53 1699.5 1150.22ZM1148.63 810.876C1107.65 828.529 1070.88 851.717 1038.34 880.44L1153.21 957.315L1153.33 980.493C1170.84 964.85 1190.39 952.048 1211.97 942.089C1241.38 927.761 1273.05 920.597 1306.99 920.597C1352.99 920.597 1394.46 933.04 1431.42 957.925L1506.07 832.368C1446.5 796.925 1380.14 779.204 1306.99 779.204C1251.19 779.204 1198.4 789.761 1148.63 810.876Z" fill="white"/>
</svg>
